<svg xmlns="http://www.w3.org/2000/svg" width="60" height="60" viewBox="0 0 60 60">
    <g fill="none" fill-rule="evenodd">
        <circle cx="30" cy="30" r="30" fill="#FFF"/>
        <path fill="#002856" d="M17.156 43.563V17.435c0-1.17.975-2.123 2.173-2.123H20c1.198 0 2.173.952 2.173 2.123v26.128c0 1.17-.975 2.123-2.173 2.123h-.67c-1.198 0-2.173-.952-2.173-2.123z"/>
        <path fill="#009FC5" d="M26.22 41.766c-1.197 0-2.172-.952-2.172-2.122V13.516c0-1.171.975-2.123 2.173-2.123h.67c1.198 0 2.172.952 2.172 2.123v26.128c0 1.17-.974 2.122-2.172 2.122h-.67"/>
        <path fill="#002856" d="M30.94 47.482V21.354c0-1.17.974-2.123 2.173-2.123h.67c1.197 0 2.172.952 2.172 2.123v26.128c0 1.17-.975 2.123-2.173 2.123h-.67c-1.198 0-2.172-.952-2.172-2.123z"/>
        <path fill="#009FC5" d="M40.004 45.686c-1.198 0-2.173-.952-2.173-2.123V17.435c0-1.17.975-2.123 2.173-2.123h.67c1.198 0 2.173.952 2.173 2.123v26.128c0 1.17-.975 2.123-2.174 2.123h-.669"/>
    </g>
</svg>
